<svg xmlns="http://www.w3.org/2000/svg" width="256" height="256" fill="none" viewBox="0 0 256 256" id="messenger">
  <rect width="224" height="224" x="16" y="16" fill="#EEE" rx="70"></rect>
  <path fill="url(#paint0_radial_533_1522)" fill-rule="evenodd" d="M61.334 126C61.334 88.8424 90.4454 61.333 128.001 61.333C165.556 61.333 194.667 88.8419 194.667 125.999C194.667 163.156 165.556 190.666 128.001 190.666C121.255 190.666 114.783 189.775 108.703 188.103C107.521 187.778 106.263 187.87 105.142 188.364L91.9095 194.206C88.448 195.735 84.5413 193.273 84.4251 189.491L84.0621 177.631C84.0173 176.171 83.36 174.805 82.2715 173.83C69.2991 162.23 61.334 145.436 61.334 126ZM107.552 113.839L87.9686 144.908C86.0889 147.89 89.754 151.249 92.5613 149.119L113.598 133.155C114.29 132.629 115.135 132.343 116.004 132.341C116.874 132.338 117.72 132.619 118.415 133.14L133.992 144.823C138.665 148.328 145.336 147.097 148.451 142.155L168.035 111.085C169.914 108.103 166.248 104.744 163.441 106.874L142.406 122.839C141.713 123.365 140.868 123.65 139.999 123.653C139.129 123.656 138.282 123.375 137.587 122.853L122.011 111.171C117.337 107.665 110.667 108.896 107.552 113.839Z" clip-rule="evenodd"></path>
  <defs>
    <radialGradient id="paint0_radial_533_1522" cx="0" cy="0" r="1" gradientTransform="rotate(-31.218 386.427 -61.827)scale(128.625)" gradientUnits="userSpaceOnUse">
      <stop stop-color="#09F"></stop>
      <stop offset=".61" stop-color="#A033FF"></stop>
      <stop offset=".93" stop-color="#FF5280"></stop>
      <stop offset="1" stop-color="#FF7061"></stop>
    </radialGradient>
  </defs>
</svg>
